<svg width="779" height="669" viewBox="0 0 779 669" fill="none" xmlns="http://www.w3.org/2000/svg">
<g clip-path="url(#clip0_2_13)">
<path d="M629 669C711.843 669 779 655.121 779 638C779 620.879 711.843 607 629 607C546.157 607 479 620.879 479 638C479 655.121 546.157 669 629 669Z" fill="#F2F2F2"/>
<path d="M45.8732 390.028C46.7672 392.111 47.7134 394.217 48.6846 396.286L46.6031 397.263C45.621 395.17 44.6648 393.042 43.7604 390.935L45.8732 390.028Z" fill="#E6E6E6"/>
<path d="M417.1 223.376C418.413 226.174 419.674 229.025 420.849 231.85L418.726 232.733C416.967 228.502 415.022 224.238 412.969 220.114L415.029 219.09C415.733 220.506 416.423 221.935 417.1 223.376ZM408.361 206.752L406.377 207.914C404.047 203.933 401.554 199.991 398.968 196.194L400.869 194.9C403.483 198.739 406.004 202.726 408.361 206.752ZM425.794 244.971C427.288 249.389 428.646 253.907 429.83 258.401L427.607 258.985C426.436 254.544 425.094 250.077 423.615 245.708L425.794 244.971ZM392.581 183.588L390.773 185.01C387.927 181.393 384.917 177.828 381.827 174.417L383.531 172.873C386.657 176.325 389.702 179.929 392.581 183.588ZM432.933 272.077C433.806 276.648 434.529 281.312 435.085 285.936L432.803 286.211C432.253 281.637 431.537 277.028 430.674 272.508L432.933 272.077ZM373.764 162.809L372.171 164.467C368.853 161.278 365.384 158.165 361.862 155.215L363.339 153.453C366.901 156.436 370.408 159.583 373.764 162.809ZM436.278 299.931C436.513 304.593 436.588 309.316 436.501 313.971L434.201 313.928C434.287 309.326 434.213 304.656 433.981 300.047L436.278 299.931ZM352.293 144.833L350.941 146.693C347.216 143.989 343.352 141.378 339.456 138.938L340.676 136.989C344.617 139.458 348.524 142.097 352.293 144.833ZM435.757 327.988C435.35 332.635 434.778 337.321 434.054 341.918L431.783 341.561C432.497 337.016 433.065 332.382 433.467 327.786L435.757 327.988ZM328.549 129.957L327.464 131.984C323.405 129.812 319.22 127.753 315.025 125.863L315.968 123.766C320.212 125.677 324.445 127.76 328.549 129.957ZM431.402 355.698C430.367 360.235 429.161 364.798 427.818 369.261L425.616 368.598C426.944 364.186 428.136 359.674 429.16 355.186L431.402 355.698ZM302.991 118.447L302.193 120.603C297.875 119.003 293.447 117.53 289.031 116.227L289.682 114.021C294.148 115.34 298.625 116.829 302.991 118.447ZM423.318 382.546C421.674 386.905 419.859 391.261 417.925 395.493L415.834 394.537C417.747 390.352 419.54 386.045 421.166 381.735L423.318 382.546ZM276.097 110.514L275.597 112.758C271.106 111.76 266.518 110.904 261.959 110.213L262.304 107.94C266.914 108.638 271.555 109.505 276.097 110.514ZM411.664 408.039C409.444 412.132 407.054 416.199 404.563 420.126L402.62 418.894C405.084 415.011 407.447 410.99 409.644 406.942L411.664 408.039ZM248.363 106.317L248.175 108.607C243.581 108.231 238.917 108.01 234.31 107.951L234.34 105.653C238.999 105.712 243.716 105.935 248.363 106.317ZM396.653 431.696C393.897 435.445 390.976 439.146 387.971 442.694L386.217 441.208C389.187 437.699 392.076 434.041 394.801 430.334L396.653 431.696ZM220.303 105.954L220.433 108.25C215.829 108.509 211.176 108.932 206.602 109.508L206.315 107.226C210.942 106.644 215.648 106.216 220.303 105.954ZM378.557 453.065C375.31 456.404 371.905 459.671 368.437 462.776L366.904 461.062C370.332 457.993 373.698 454.763 376.909 451.462L378.557 453.065ZM192.467 109.459L192.911 111.716C188.392 112.606 183.849 113.664 179.407 114.861L178.809 112.641C183.302 111.431 187.897 110.36 192.467 109.459ZM357.671 471.763C353.997 474.621 350.175 477.388 346.312 479.987L345.028 478.079C348.848 475.509 352.626 472.773 356.258 469.948L357.671 471.763ZM165.403 116.753L166.151 118.927C161.806 120.424 157.45 122.094 153.204 123.888L152.309 121.771C156.602 119.956 161.007 118.268 165.403 116.753ZM334.415 487.412C330.39 489.736 326.227 491.956 322.041 494.01L321.029 491.945C325.168 489.915 329.285 487.719 333.265 485.42L334.415 487.412ZM140.619 129.718C136.504 131.794 132.411 134.034 128.457 136.378L127.284 134.4C131.284 132.03 135.422 129.764 139.583 127.664L140.619 129.718ZM116.777 143.851C112.982 146.469 109.234 149.248 105.639 152.111L104.207 150.312C107.843 147.417 111.633 144.606 115.472 141.958L116.777 143.851ZM95.0977 161.119C91.7068 164.226 88.3807 167.489 85.2132 170.82L83.547 169.236C86.7511 165.867 90.1147 162.566 93.5447 159.424L95.0977 161.119ZM76.019 181.184C73.0832 184.732 70.2362 188.425 67.5564 192.158L65.6882 190.817C68.3987 187.041 71.2784 183.307 74.2473 179.719L76.019 181.184ZM59.864 203.689C57.4393 207.609 55.1223 211.658 52.9768 215.721L50.9443 214.649C53.1131 210.539 55.4563 206.444 57.9083 202.479L59.864 203.689ZM46.9263 228.198C45.0595 232.406 43.3137 236.732 41.7372 241.059L39.577 240.272C41.1713 235.896 42.9369 231.521 44.824 227.265L46.9263 228.198ZM37.437 254.245C36.1582 258.675 35.0162 263.201 34.0437 267.697L31.7967 267.211C32.78 262.664 33.9344 258.087 35.2279 253.608L37.437 254.245ZM31.5746 281.348C30.9112 285.913 30.3972 290.553 30.0478 295.14L27.7548 294.966C28.1086 290.327 28.628 285.634 29.2996 281.017L31.5746 281.348ZM29.4713 309.007C29.4377 313.618 29.5653 318.285 29.85 322.882L27.5552 323.024C27.2674 318.375 27.1385 313.654 27.1715 308.99L29.4713 309.007ZM31.1858 336.7C31.7871 341.264 32.5558 345.865 33.4703 350.377L31.2169 350.834C30.2916 346.271 29.5142 341.616 28.9062 337.001L31.1858 336.7ZM36.6932 363.865C37.916 368.299 39.3092 372.751 40.835 377.098L38.6645 377.859C37.1218 373.462 35.7129 368.959 34.4762 364.476L36.6932 363.865Z" fill="#E6E6E6"/>
<path d="M308.066 497.759L308.934 499.888C306.784 500.765 304.609 501.609 302.468 502.398L301.672 500.241C303.789 499.461 305.94 498.626 308.066 497.759Z" fill="#E6E6E6"/>
<path d="M416.146 401.521C415.917 401.146 410.506 392.111 408.63 373.35C406.909 356.137 408.016 327.123 423.062 286.651C451.568 209.98 416.493 148.118 416.135 147.502L417.865 146.498C417.956 146.654 427.007 162.427 432.354 187.542C439.418 220.84 436.846 255.461 424.938 287.349C396.48 363.889 417.637 400.122 417.854 400.479L416.146 401.521Z" fill="#3F3D56"/>
<path d="M405 143C412.18 143 418 137.18 418 130C418 122.82 412.18 117 405 117C397.82 117 392 122.82 392 130C392 137.18 397.82 143 405 143Z" fill="#FE6F45"/>
<path d="M446 191C453.18 191 459 185.18 459 178C459 170.82 453.18 165 446 165C438.82 165 433 170.82 433 178C433 185.18 438.82 191 446 191Z" fill="#3F3D56"/>
<path d="M418 223C425.18 223 431 217.18 431 210C431 202.82 425.18 197 418 197C410.82 197 405 202.82 405 210C405 217.18 410.82 223 418 223Z" fill="#FE6F45"/>
<path d="M452 250C459.18 250 465 244.18 465 237C465 229.82 459.18 224 452 224C444.82 224 439 229.82 439 237C439 244.18 444.82 250 452 250Z" fill="#FE6F45"/>
<path d="M408 292C415.18 292 421 286.18 421 279C421 271.82 415.18 266 408 266C400.82 266 395 271.82 395 279C395 286.18 400.82 292 408 292Z" fill="#3F3D56"/>
<path d="M424 402C424 402 411 370 450 346L424 402Z" fill="#3F3D56"/>
<path d="M408.012 401.42C408.012 401.42 402.096 367.39 356.304 367.682L408.012 401.42Z" fill="#3F3D56"/>
<path d="M334.319 240.036C334.008 239.962 333.681 240.003 333.398 240.149C333.114 240.296 332.895 240.539 332.78 240.833C332.665 241.127 332.662 241.452 332.773 241.747C332.883 242.043 333.098 242.289 333.379 242.44C337.892 244.921 341.862 248.256 345.061 252.254C359.974 270.891 354.767 299.417 333.431 315.967C323.956 323.446 312.143 327.465 300 327.339C314.327 331.314 331.237 328.186 344.864 317.616C366.201 301.066 371.408 272.54 356.495 253.903C350.893 246.961 343.082 242.077 334.319 240.036Z" fill="#3F3D56"/>
<path d="M343.244 252.383C357.947 271.222 352.814 300.055 331.778 316.783C324.07 322.982 314.791 326.869 305 328C316.693 327.93 328.021 323.877 337.148 316.498C358.184 299.769 363.317 270.936 348.614 252.098C344.444 246.768 338.976 242.62 332.744 240.059L332.647 240.034C332.341 239.962 332.019 240.004 331.741 240.153C331.463 240.302 331.248 240.548 331.136 240.845C331.024 241.142 331.022 241.469 331.131 241.767C331.24 242.065 331.453 242.313 331.729 242.465C336.178 244.972 340.091 248.343 343.244 252.383Z" fill="#FE6F45"/>
<path d="M279 224L287.5 239L296 254H279H262L270.5 239L279 224Z" fill="#FE6F45"/>
<path d="M310.5 224L319.25 239L328 254H310.5H293L301.75 239L310.5 224Z" fill="#FE6F45"/>
<path d="M278 231L283.5 240.5L289 250H278H267L272.5 240.5L278 231Z" fill="#3F3D56"/>
<path d="M310.5 231L315.75 240.5L321 250H310.5H300L305.25 240.5L310.5 231Z" fill="#3F3D56"/>
<path d="M355 330.998C355.001 344.881 350.265 358.349 341.577 369.177C332.888 380.005 320.765 387.545 307.212 390.552C293.658 393.559 279.484 391.852 267.032 385.715C254.579 379.577 244.592 369.375 238.722 356.794C232.851 344.213 231.448 330.006 234.744 316.52C238.039 303.033 245.837 291.075 256.848 282.619C267.859 274.164 281.425 269.717 295.305 270.014C309.185 270.311 322.548 275.334 333.188 284.253C340.017 289.978 345.51 297.13 349.278 305.206C353.047 313.282 355 322.086 355 330.998Z" fill="#3F3D56"/>
<path opacity="0.1" d="M334 284.147C328.921 297.374 313.381 307 295 307C276.619 307 261.079 297.374 256 284.147C266.93 275.008 280.737 270 295 270C309.263 270 323.07 275.008 334 284.147Z" fill="black"/>
<path d="M294.5 303C317.42 303 336 288.449 336 270.5C336 252.551 317.42 238 294.5 238C271.58 238 253 252.551 253 270.5C253 288.449 271.58 303 294.5 303Z" fill="#3F3D56"/>
<path d="M275 273C279.418 273 283 269.418 283 265C283 260.582 279.418 257 275 257C270.582 257 267 260.582 267 265C267 269.418 270.582 273 275 273Z" fill="white"/>
<path d="M313 273C317.418 273 321 269.418 321 265C321 260.582 317.418 257 313 257C308.582 257 305 260.582 305 265C305 269.418 308.582 273 313 273Z" fill="white"/>
<path d="M275 270C277.761 270 280 267.761 280 265C280 262.239 277.761 260 275 260C272.239 260 270 262.239 270 265C270 267.761 272.239 270 275 270Z" fill="#3F3D56"/>
<path d="M313.5 270C315.985 270 318 267.761 318 265C318 262.239 315.985 260 313.5 260C311.015 260 309 262.239 309 265C309 267.761 311.015 270 313.5 270Z" fill="#3F3D56"/>
<path d="M291 278C292.105 278 293 276.881 293 275.5C293 274.119 292.105 273 291 273C289.895 273 289 274.119 289 275.5C289 276.881 289.895 278 291 278Z" fill="#FE6F45"/>
<path d="M285.313 276.038C282.374 277.165 280.429 279.459 277.341 280.446C274.196 281.447 270.737 281.501 267.55 280.599C266.999 280.445 266.763 281.178 267.311 281.331C270.503 282.23 273.956 282.223 277.143 281.311C278.65 280.877 280.065 280.242 281.334 279.43C282.805 278.486 284.06 277.348 285.767 276.693C286.293 276.492 285.836 275.837 285.313 276.038Z" fill="#FE6F45"/>
<path d="M286.458 276.006C285.016 276.266 283.624 276.678 282.322 277.231C280.824 277.798 279.21 278.154 277.554 278.282C274.411 278.496 271.269 277.873 268.635 276.513C268.168 276.275 267.735 276.86 268.199 277.098C270.836 278.454 273.958 279.115 277.108 278.984C278.637 278.922 280.143 278.666 281.567 278.226C283.283 277.69 284.842 276.907 286.688 276.658C287.234 276.584 287.003 275.932 286.458 276.006Z" fill="#FE6F45"/>
<path d="M286.238 275.127C283.986 277.301 283.051 280.441 280.662 282.545C278.091 284.808 274.819 286.066 271.428 286.095C271.313 286.099 271.204 286.148 271.124 286.233C271.045 286.317 271 286.43 271 286.547C271 286.665 271.045 286.778 271.124 286.862C271.204 286.947 271.313 286.996 271.428 287C274.711 286.975 277.898 285.863 280.511 283.83C281.692 282.914 282.73 281.819 283.588 280.583C284.702 278.971 285.439 277.142 286.864 275.767C287.279 275.366 286.652 274.727 286.238 275.127Z" fill="#FE6F45"/>
<path d="M296 277C297.105 277 298 275.881 298 274.5C298 273.119 297.105 272 296 272C294.895 272 294 273.119 294 274.5C294 275.881 294.895 277 296 277Z" fill="#FE6F45"/>
<path d="M301.209 276.693C302.72 277.341 303.836 278.46 305.135 279.399C306.281 280.225 307.561 280.87 308.925 281.31C311.776 282.223 314.866 282.23 317.722 281.33C318.211 281.177 318.001 280.444 317.508 280.598C314.656 281.5 311.562 281.446 308.747 280.445C305.985 279.457 304.245 277.165 301.615 276.038C301.147 275.837 300.738 276.491 301.209 276.693Z" fill="#FE6F45"/>
<path d="M300.296 276.658C301.976 276.897 303.396 277.63 304.951 278.161C306.358 278.639 307.852 278.917 309.372 278.984C312.356 279.115 315.313 278.454 317.812 277.098C318.251 276.86 317.842 276.274 317.399 276.513C314.905 277.875 311.927 278.499 308.949 278.282C307.381 278.151 305.853 277.795 304.432 277.231C303.198 276.679 301.88 276.267 300.513 276.006C299.998 275.932 299.777 276.584 300.296 276.658Z" fill="#FE6F45"/>
<path d="M301.128 275.767C302.462 277.14 303.154 278.973 304.198 280.583C305.004 281.818 305.977 282.913 307.083 283.83C309.533 285.863 312.521 286.975 315.599 287C315.707 286.996 315.809 286.947 315.883 286.862C315.958 286.778 316 286.665 316 286.547C316 286.43 315.958 286.317 315.883 286.233C315.809 286.148 315.707 286.099 315.599 286.095C312.419 286.07 309.35 284.811 306.942 282.545C304.712 280.433 303.825 277.3 301.714 275.127C301.326 274.727 300.739 275.366 301.128 275.767Z" fill="#FE6F45"/>
<path d="M276 397C282.075 397 287 393.866 287 390C287 386.134 282.075 383 276 383C269.925 383 265 386.134 265 390C265 393.866 269.925 397 276 397Z" fill="#3F3D56"/>
<path d="M314.5 397C320.851 397 326 393.866 326 390C326 386.134 320.851 383 314.5 383C308.149 383 303 386.134 303 390C303 393.866 308.149 397 314.5 397Z" fill="#3F3D56"/>
<path d="M293.5 280C298.747 280 303 277.761 303 275C303 272.239 298.747 270 293.5 270C288.253 270 284 272.239 284 275C284 277.761 288.253 280 293.5 280Z" fill="#FE6F45"/>
<path d="M0 0V556H745V0H0ZM96 7C98.3734 7 100.693 7.70378 102.667 9.02236C104.64 10.3409 106.178 12.2151 107.087 14.4078C107.995 16.6005 108.232 19.0133 107.769 21.3411C107.306 23.6689 106.164 25.807 104.485 27.4853C102.807 29.1635 100.669 30.3064 98.3411 30.7694C96.0133 31.2324 93.6005 30.9948 91.4078 30.0865C89.2151 29.1783 87.3409 27.6402 86.0224 25.6668C84.7038 23.6934 84 21.3734 84 19C84 15.8174 85.2643 12.7652 87.5147 10.5147C89.7651 8.26428 92.8174 7 96 7ZM24 31C21.6266 31 19.3066 30.2962 17.3332 28.9776C15.3598 27.6591 13.8217 25.7849 12.9135 23.5922C12.0052 21.3995 11.7676 18.9867 12.2306 16.6589C12.6936 14.3311 13.8365 12.1929 15.5147 10.5147C17.193 8.83649 19.3311 7.6936 21.6589 7.23058C23.9867 6.76755 26.3995 7.00519 28.5922 7.91344C30.7849 8.8217 32.6591 10.3598 33.9776 12.3332C35.2962 14.3066 36 16.6266 36 19C36 22.1826 34.7357 25.2348 32.4853 27.4853C30.2348 29.7357 27.1826 31 24 31ZM48 19C48 16.6266 48.7038 14.3066 50.0224 12.3332C51.3409 10.3598 53.2151 8.8217 55.4078 7.91344C57.6005 7.00519 60.0133 6.76755 62.3411 7.23058C64.6689 7.6936 66.8071 8.83649 68.4853 10.5147C70.1635 12.1929 71.3064 14.3311 71.7694 16.6589C72.2324 18.9867 71.9948 21.3995 71.0865 23.5922C70.1783 25.7849 68.6402 27.6591 66.6668 28.9776C64.6934 30.2962 62.3734 31 60 31C56.8174 31 53.7651 29.7357 51.5147 27.4853C49.2643 25.2348 48 22.1826 48 19ZM461 400H60V102H461V400Z" fill="#F2F2F2"/>
<path d="M729 10H705V13H729V10Z" fill="white"/>
<path d="M729 19H705V22H729V19Z" fill="white"/>
<path d="M729 28H705V31H729V28Z" fill="white"/>
<path d="M705 97H524V106H705V97Z" fill="white"/>
<path d="M705 128H524V137H705V128Z" fill="white"/>
<path d="M705 159H524V168H705V159Z" fill="white"/>
<path d="M705 190H524V199H705V190Z" fill="white"/>
<path d="M705 221H524V230H705V221Z" fill="white"/>
<path d="M705 252H524V261H705V252Z" fill="white"/>
<path d="M705 283H524V292H705V283Z" fill="white"/>
<path d="M705 314H524V323H705V314Z" fill="white"/>
<path d="M705 345H524V354H705V345Z" fill="white"/>
<path d="M705 376H524V385H705V376Z" fill="white"/>
<path d="M84 433C90.6274 433 96 427.627 96 421C96 414.373 90.6274 409 84 409C77.3726 409 72 414.373 72 421C72 427.627 77.3726 433 84 433Z" fill="white"/>
<path d="M125 433C131.627 433 137 427.627 137 421C137 414.373 131.627 409 125 409C118.373 409 113 414.373 113 421C113 427.627 118.373 433 125 433Z" fill="white"/>
<path d="M166 433C172.627 433 178 427.627 178 421C178 414.373 172.627 409 166 409C159.373 409 154 414.373 154 421C154 427.627 159.373 433 166 433Z" fill="white"/>
<path d="M705 480H524V531H705V480Z" fill="#FE6F45"/>
<path d="M613.959 439.446L615.984 510.298L637.577 593.295C637.577 593.295 632.853 607.465 636.227 610.839C639.601 614.213 655.121 620.286 655.121 620.286L642.3 443.495L613.959 439.446Z" fill="#2F2E41"/>
<path d="M660.839 610.493C660.839 610.493 668.54 627.434 657.759 628.974C646.979 630.514 597.183 634.621 600.264 625.894C603.344 617.167 640.819 608.953 640.819 608.953L660.839 610.493Z" fill="#2F2E41"/>
<path d="M689.534 376.692C689.534 376.692 681.437 420.553 676.039 427.975C670.64 435.398 678.738 489.38 678.738 489.38C678.738 489.38 690.884 566.978 685.485 579.124C680.087 591.27 681.437 587.222 682.112 593.969C682.786 600.717 684.136 606.115 682.112 612.188C680.087 618.261 680.087 617.586 679.412 620.96C678.738 624.334 679.412 642.553 679.412 642.553C679.412 642.553 650.397 652.675 645.674 637.83C645.674 637.83 652.422 628.383 650.397 620.96C648.286 613.491 647.152 605.779 647.023 598.018V583.848L615.984 467.787L608.561 425.951C608.561 425.951 610.586 383.44 618.008 379.392C625.431 375.343 689.534 376.692 689.534 376.692Z" fill="#2F2E41"/>
<path d="M677.388 639.179C677.388 639.179 687.51 661.447 673.34 663.471C659.169 665.495 593.716 670.894 597.765 659.422C601.814 647.951 651.072 637.155 651.072 637.155L677.388 639.179Z" fill="#2F2E41"/>
<path d="M664.56 182.386C679.467 182.386 691.551 170.302 691.551 155.395C691.551 140.488 679.467 128.404 664.56 128.404C649.654 128.404 637.57 140.488 637.57 155.395C637.57 170.302 649.654 182.386 664.56 182.386Z" fill="#FFB9B9"/>
<path d="M683.527 167.322L683.025 201.791L649.933 201.904C649.933 201.904 658.332 174.92 654.57 169.278C650.808 163.635 683.527 167.322 683.527 167.322Z" fill="#FFB9B9"/>
<path d="M634.203 220.82C634.203 220.82 657.82 190.455 676.039 203.276C694.258 216.096 701.005 246.461 701.005 246.461L696.957 331.483C696.957 331.483 686.835 343.629 692.908 351.726C698.981 359.823 702.355 357.799 697.631 363.872C692.908 369.945 687.51 374.668 689.534 376.692C691.558 378.717 687.51 380.066 687.51 380.066L615.984 382.091C615.984 382.091 618.008 379.392 611.935 371.294C605.862 363.197 613.285 352.401 611.935 348.352C610.586 344.303 609.236 349.027 608.561 339.58C607.887 330.133 634.203 220.82 634.203 220.82Z" fill="#3F3D56"/>
<path d="M640.95 394.911C640.95 394.911 639.601 411.781 629.479 414.48C625.684 415.492 622.837 413.562 620.761 410.755C618.823 408.065 617.737 404.855 617.642 401.541C617.548 398.226 618.45 394.96 620.232 392.164L622.732 388.164L640.95 394.911Z" fill="#FFB9B9"/>
<path d="M703.367 186.744C703.367 186.744 704.042 200.239 703.367 202.264C702.692 204.288 702.017 206.312 703.367 208.337C704.716 210.361 704.042 217.109 702.692 217.783C701.343 218.458 705.391 224.531 704.042 228.58C702.692 232.628 701.343 233.978 700.668 235.327C699.993 236.677 698.906 239.095 698.906 239.095C698.906 239.095 679.075 196.865 662.881 206.987C646.686 217.109 633.865 220.482 633.865 220.482C633.865 220.482 642.637 173.248 703.367 186.744Z" fill="#3F3D56"/>
<path d="M674.014 218.121C674.014 218.121 695.607 220.145 694.258 248.486C692.908 276.826 696.282 321.361 696.282 321.361C696.282 321.361 659.169 378.042 653.096 382.091C647.023 386.139 646.349 385.465 647.023 388.838C647.698 392.212 648.373 394.911 645.674 397.61C644.08 399.215 642.262 400.579 640.276 401.659C640.276 401.659 618.683 394.237 620.707 387.489C622.731 380.741 632.178 369.945 632.178 369.945C632.178 369.945 648.373 343.629 649.048 339.58C649.722 335.531 649.722 336.206 651.747 334.182C653.771 332.157 659.169 324.06 659.169 320.011V307.191L653.512 238.677C653.255 235.886 653.592 233.073 654.5 230.422C655.408 227.771 656.866 225.342 658.78 223.295C661.991 219.935 666.845 217.26 674.014 218.121Z" fill="#3F3D56"/>
<path d="M647.154 134.58C645.395 135.067 643.542 135.109 641.763 134.702C639.984 134.295 638.334 133.451 636.963 132.247C634.325 129.74 633.438 125.398 635.315 122.281C636.936 119.589 640.088 118.273 643.087 117.337C649.703 115.275 656.593 114.224 663.523 114.22C666.827 114.219 670.277 114.5 673.104 116.21C674.503 117.056 675.688 118.217 677.071 119.089C679.614 120.691 682.668 121.224 685.46 122.337C688.315 123.498 690.887 125.258 693.003 127.498C695.119 129.739 696.729 132.408 697.724 135.325C698.365 137.303 698.765 139.351 698.916 141.425C699.372 147.106 698.368 152.81 696 157.993C692.235 166.203 685.069 173.106 684.056 182.081C680.199 178.843 679.068 173.411 676.08 169.356C673.856 166.358 670.681 164.203 667.073 163.243C666.065 163.109 665.117 162.686 664.346 162.024C663.826 161.306 663.53 160.451 663.492 159.566L661.64 146.232C661.263 143.518 660.754 140.552 658.672 138.772C657.366 137.8 655.852 137.143 654.25 136.853C650.461 135.911 646.6 135.281 642.708 134.971" fill="#2F2E41"/>
<path opacity="0.1" d="M693 331L655.121 380.157C655.121 380.157 690 351 693 331Z" fill="black"/>
<path opacity="0.1" d="M656.641 276.575L657 323L635 356L653 319L656.641 276.575Z" fill="black"/>
<path d="M181.122 383.556C179.03 392.343 167.107 381.543 167.107 381.543L152.882 380.078C152.882 380.078 143.888 380.261 138.03 384.288C132.173 388.316 128.199 383.007 128.199 383.007C121.6 384.932 113.516 384.924 106.514 384.308C96.4246 383.419 88.3376 376.604 86.9509 367.814C79.1289 318.226 122.133 293.857 122.133 293.857L134.684 264.201C134.684 264.201 130.709 255.597 129.454 247.909C128.199 240.22 137.403 232.898 148.699 225.576C153.641 222.372 159.303 222.602 164.11 223.875C169.502 225.303 174.206 228.238 177.682 232.119C180.561 235.333 185.5 239.886 190.928 240.674C192.807 240.945 194.66 241.597 196.392 242.783C198.183 244.01 198.974 246.056 198.999 248.601C199.133 259.716 188.644 273.098 179.449 275.185C168.153 277.748 174.219 302.095 174.219 302.095C192.627 324.794 179.658 350.056 179.658 350.056L183.005 370.559C183.005 370.559 183.214 374.769 181.122 383.556Z" fill="#3F3D56"/>
<path d="M120 336.262L124.585 385.923C124.585 385.923 118.333 399.697 139.592 398.972C160.852 398.247 148.346 369.974 148.346 369.974L141.676 333" fill="#3F3D56"/>
<path d="M158.009 347C158.009 347 156.771 393.069 182.767 391.981C208.763 390.893 185.243 376.383 185.243 376.383L182.974 370.76" fill="#3F3D56"/>
<path d="M199 248.856C196.067 249.168 191.477 249.154 187.674 246.9C183.602 244.487 187.829 242.237 191.121 241C192.955 241.269 194.765 241.914 196.455 243.09C198.204 244.306 198.975 246.334 199 248.856Z" fill="#2F2E41"/>
<path d="M151.238 242.428C151.238 242.428 158.568 226.229 148.07 226.003C137.572 225.776 129.28 239.813 129.28 239.813C129.28 239.813 102.931 281.142 139.031 278.913C175.131 276.684 157.88 260.186 157.88 260.186C157.88 260.186 149.647 251.476 151.238 242.428Z" fill="#2F2E41"/>
<path d="M110.452 364.407C105.876 366.124 101.094 367.876 96.0897 367.709C91.085 367.541 85.8184 364.823 85.0385 360.65C84.6359 358.496 85.4344 356.184 84.4565 354.166C83.1408 351.449 78.8966 350.402 75.5975 351.333C72.2983 352.263 69.8746 354.664 68.1369 357.206C64.8856 361.961 63.5828 368.203 67.0688 372.839C70.0908 376.858 75.8225 378.674 81.154 380.232C88.2555 382.307 96.1843 384.366 103.066 381.817C109.986 379.254 113.756 371.849 111.194 365.851" fill="#3F3D56"/>
<path d="M126.812 285.764C126.812 285.764 117.731 289.727 122.271 294.05C126.812 298.373 154.883 310.622 165.203 308.821C175.523 307.019 178 301.615 178 300.174C178 298.733 177.222 281.301 173.919 282.022C170.617 282.742 149.929 299.093 126.812 285.764Z" fill="#FE6F45"/>
</g>
<defs>
<clipPath id="clip0_2_13">
<rect width="779" height="669" fill="white"/>
</clipPath>
</defs>
</svg>
